<svg xmlns="http://www.w3.org/2000/svg" width="10" height="10" viewBox="0 0 10 10">  <path fill="#A7ABB0" fill-rule="evenodd" d="M1.07556476,10 L1.99430686,10 L1.99430686,4.03851881 L0,4.03851881 L1.07556476,10 Z M9.54711118,4.02561302 L6.90599542,4.02561302 C6.77303578,3.73940127 6.76251511,3.39867467 6.87748777,3.10235282 C7.04831495,2.4710552 7.06771421,1.79847622 6.9336392,1.15556438 C6.82145781,0.566040504 6.41316399,0.110907575 5.89699741,0 C5.67651097,0.0368053212 5.48658127,0.197711506 5.39077068,0.428869254 L5.39077068,1.88126675 C4.98800676,2.78735253 4.24584957,3.65833893 3.73241466,4.48724313 C3.55964103,4.52099672 2.89100709,4.62027201 2.89100709,4.62027201 L2.89100709,9.17502234 L3.08624129,9.17502234 C3.63522239,9.50764787 4.20876981,9.78371985 4.8001557,10 L8.34201511,10 C8.65174856,9.90411943 8.86211376,9.57408448 8.84824185,9.20579768 C8.83731513,8.93370078 8.72455287,8.68032086 8.53897705,8.51087064 C8.93751796,8.4969728 9.26388604,8.14239343 9.29831716,7.68589298 C9.24995868,7.43929266 9.11816177,7.22496188 8.93203706,7.09024124 C9.30301988,7.01917691 9.58253521,6.6638221 9.60671808,6.23250273 C9.57796777,5.9902333 9.48886573,5.76268758 9.35014924,5.57728581 C9.69890741,5.51641874 9.96600352,5.18895552 9.99632262,4.785069 C10.0291798,4.43949796 9.83881233,4.11765462 9.54711118,4.02561302 Z"/></svg>